<svg width="200" height="188" viewBox="0 0 200 188" fill="none" xmlns="http://www.w3.org/2000/svg">
<g clip-path="url(#clip0_482_2859)">
<path d="M187.5 200.822H156.25C152.5 200.822 150 198.322 150 194.572V100.822C150 97.0723 152.5 94.5723 156.25 94.5723H187.5C191.25 94.5723 193.75 97.0723 193.75 100.822V194.572C193.75 198.322 191.25 200.822 187.5 200.822Z" fill="#4B4D55"/>
<path d="M43.75 200.822H12.5C8.75 200.822 6.25 198.322 6.25 194.572V132.072C6.25 128.322 8.75 125.822 12.5 125.822H43.75C47.5 125.822 50 128.322 50 132.072V194.572C50 198.322 47.5 200.822 43.75 200.822Z" fill="#4B4D55"/>
<path d="M131.25 57.0723V44.5723C131.25 40.8223 128.75 38.3223 125 38.3223H118.75V25.8223C118.75 22.0723 116.25 19.5723 112.5 19.5723H106.25V7.07227C106.25 3.32227 103.75 0.822266 100 0.822266C96.25 0.822266 93.75 3.32227 93.75 7.07227V19.5723H87.5C83.75 19.5723 81.25 22.0723 81.25 25.8223V38.3223H75C71.25 38.3223 68.75 40.8223 68.75 44.5723V57.0723C65 57.0723 62.5 59.5723 62.5 63.3223V194.572C62.5 198.322 65 200.822 68.75 200.822H131.25C135 200.822 137.5 198.322 137.5 194.572V63.3223C137.5 59.5723 135 57.0723 131.25 57.0723ZM112.5 169.572H87.5C83.75 169.572 81.25 167.072 81.25 163.322C81.25 159.572 83.75 157.072 87.5 157.072H112.5C116.25 157.072 118.75 159.572 118.75 163.322C118.75 167.072 116.25 169.572 112.5 169.572ZM112.5 144.572H87.5C83.75 144.572 81.25 142.072 81.25 138.322C81.25 134.572 83.75 132.072 87.5 132.072H112.5C116.25 132.072 118.75 134.572 118.75 138.322C118.75 142.072 116.25 144.572 112.5 144.572ZM112.5 119.572H87.5C83.75 119.572 81.25 117.072 81.25 113.322C81.25 109.572 83.75 107.072 87.5 107.072H112.5C116.25 107.072 118.75 109.572 118.75 113.322C118.75 117.072 116.25 119.572 112.5 119.572ZM112.5 94.5723H87.5C83.75 94.5723 81.25 92.0723 81.25 88.3223C81.25 84.5723 83.75 82.0723 87.5 82.0723H112.5C116.25 82.0723 118.75 84.5723 118.75 88.3223C118.75 92.0723 116.25 94.5723 112.5 94.5723Z" fill="#4B4D55"/>
</g>
<defs>
<clipPath id="clip0_482_2859">
<rect width="200" height="200" fill="white" transform="translate(0 0.822266)"/>
</clipPath>
</defs>
</svg>
