<svg width="200" height="172" viewBox="0 0 200 172" fill="none" xmlns="http://www.w3.org/2000/svg">
<path d="M136.713 152.119L104.87 136.199C101.867 134.696 100 131.676 100 128.316V117.046C100.763 116.112 101.567 115.049 102.397 113.876C106.527 108.042 109.837 101.549 112.243 94.5456C116.947 92.3889 120 87.7389 120 82.4889V69.1556C120 65.9456 118.8 62.8356 116.667 60.4056V42.6756C116.853 40.8423 117.587 29.9289 109.693 20.9256C102.847 13.1156 91.7367 9.15561 76.6667 9.15561C61.5967 9.15561 50.4867 13.1156 43.64 20.9223C35.7467 29.9256 36.48 40.8423 36.6667 42.6723V60.4023C34.5333 62.8323 33.3333 65.9423 33.3333 69.1523V82.4856C33.3333 86.5423 35.1767 90.3256 38.3233 92.8489C41.3767 104.939 47.7667 114.049 50 116.972V128.002C50 131.229 48.24 134.189 45.41 135.736L15.6733 151.956C6.00333 157.236 0 167.349 0 178.362V192.489H153.333V179.012C153.333 167.549 146.963 157.246 136.713 152.119Z" fill="#4B4D55"/>
<path d="M184.89 155.909L152.48 141.876C151.713 141.492 150.863 140.556 150.133 139.306L171.883 139.289C171.883 139.289 173.14 139.412 175.09 139.412C178.667 139.412 183.883 139.006 188.423 137.056C191.147 135.882 193.173 133.566 193.987 130.699C194.807 127.806 194.287 124.742 192.567 122.289C186.35 113.442 171.84 90.3256 171.387 66.8789C171.377 66.4756 170.063 26.6023 130.687 26.2789C126.73 26.3123 122.99 26.7989 119.447 27.6556C122.087 34.6356 121.843 40.8823 121.663 42.9089V58.6856C123.823 61.7589 124.997 65.4089 124.997 69.1556V82.4889C124.997 88.8456 121.65 94.7289 116.307 98.0289C113.813 104.769 110.513 111.066 106.477 116.766C105.977 117.476 105.483 118.146 105 118.779V128.312C105 129.786 105.787 131.062 107.103 131.719L138.947 147.639C150.903 153.619 158.33 165.636 158.33 179.006V192.489H200V180.166C200 169.859 194.273 160.599 184.89 155.909Z" fill="#4B4D55"/>
</svg>
